<?xml version="1.0" encoding="UTF-8" standalone="no"?>
<!-- Created with Inkscape (http://www.inkscape.org/) -->

<svg
   width="80"
   height="80"
   viewBox="0 0 21.166666 21.166666"
   version="1.1"
   id="svg1"
   inkscape:version="1.4 (86a8ad7, 2024-10-11)"
   sodipodi:docname="gray-tiles.svg"
   xmlns:inkscape="http://www.inkscape.org/namespaces/inkscape"
   xmlns:sodipodi="http://sodipodi.sourceforge.net/DTD/sodipodi-0.dtd"
   xmlns="http://www.w3.org/2000/svg"
   xmlns:svg="http://www.w3.org/2000/svg">
  <sodipodi:namedview
     id="namedview1"
     pagecolor="#ffffff"
     bordercolor="#000000"
     borderopacity="0.25"
     inkscape:showpageshadow="2"
     inkscape:pageopacity="0.0"
     inkscape:pagecheckerboard="0"
     inkscape:deskcolor="#d1d1d1"
     inkscape:document-units="px"
     inkscape:zoom="5.6568543"
     inkscape:cx="77.251416"
     inkscape:cy="47.818096"
     inkscape:window-width="2560"
     inkscape:window-height="1369"
     inkscape:window-x="-8"
     inkscape:window-y="-8"
     inkscape:window-maximized="1"
     inkscape:current-layer="layer1"
     showguides="true"
     inkscape:lockguides="false">
    <sodipodi:guide
       position="-3.3292186,17.072627"
       orientation="0,-1"
       id="guide29"
       inkscape:locked="false" />
    <sodipodi:guide
       position="-18.669661,4.2416015"
       orientation="0,-1"
       id="guide31"
       inkscape:locked="false" />
    <sodipodi:guide
       position="4.231041,24.324041"
       orientation="1,0"
       id="guide32"
       inkscape:locked="false" />
    <sodipodi:guide
       position="8.4692622,23.179943"
       orientation="1,0"
       id="guide33"
       inkscape:locked="false" />
    <sodipodi:guide
       position="12.701076,22.502784"
       orientation="1,0"
       id="guide34"
       inkscape:locked="false" />
    <sodipodi:guide
       position="16.938524,23.438633"
       orientation="1,0"
       id="guide35"
       inkscape:locked="false" />
    <sodipodi:guide
       position="-5.940065,0.42321051"
       orientation="0,-1"
       id="guide37"
       inkscape:locked="false" />
  </sodipodi:namedview>
  <defs
     id="defs1" />
  <g
     inkscape:label="Layer 1"
     inkscape:groupmode="layer"
     id="layer1">
    <path
       style="fill:#ff0000;stroke:#ff0000;stroke-width:0.264583"
       d="m -1.5668676,-0.51449382 c 0.031181,0.0623629 0.07918,0.11886041 0.093544,0.18708864 0.048604,0.23086969 0.066647,0.46719032 0.093544,0.70158252 0.099698,0.86879666 0.070158,1.69960706 0.070158,2.57246926 0,1.2784391 0,2.5568782 0,3.8353176 0,0.5768568 0,1.1537135 0,1.73057 0,0.2650424 0,0.5300848 0,0.7951269 0,0.109135 0.016595,0.2195393 0,0.3274052 -0.010928,0.071034 -0.037858,0.13916 -0.046772,0.2104747 -0.014503,0.1160275 0.00778,0.23412 0,0.350791 -0.00733,0.109999 -0.037617,0.217543 -0.046772,0.327405 -0.00324,0.03884 0.00764,0.07871 0,0.116931 -0.00823,0.04116 -0.035727,0.07643 -0.046772,0.11693 -0.030774,0.112837 -0.044466,0.405457 -0.046772,0.467722 -0.013903,0.375379 0.00628,0.746803 -0.023386,1.122532 -0.030755,0.389557 -0.1129991,0.760571 -0.1637026,1.145918 -0.022465,0.170734 -0.022896,0.343952 -0.046772,0.514494 -0.030741,0.219581 -0.079811,0.436217 -0.1169304,0.65481 -0.1335614,0.786529 -0.058023,0.428695 -0.2104747,1.286235 -0.020872,0.117405 -0.052683,0.232832 -0.070158,0.350791 -0.076877,0.51892 -0.070158,1.044075 -0.070158,1.566868 0,0.329837 -0.050785,0.684195 0.023386,1.005601 0.032111,0.139148 0.1375644,0.245415 0.1870886,0.374178 0.023076,0.06 0.027868,0.125649 0.046772,0.187088 0.06026,0.195845 0.1223229,0.390355 0.1870886,0.584652 0.050574,0.151723 -0.00504,0.04388 0.046772,0.233861 0.011046,0.0405 0.034427,0.07681 0.046772,0.116931 0.018904,0.06144 0.024804,0.126676 0.046772,0.187088 0.015534,0.04272 0.052253,0.07515 0.070158,0.116931 0.090837,0.211954 0.1220993,0.422945 0.3040191,0.584652 0.054965,0.04886 0.1157431,0.09909 0.1870887,0.11693 0.015125,0.0038 0.032174,-0.0055 0.046772,0 0.0489634,0.01836 0.0898663,0.0564 0.14031651,0.07016 0.0376034,0.01026 0.0779536,0 0.11693043,0 0.0467722,0.0078 0.0948989,0.0098 0.1403165,0.02339 0.0333917,0.01002 0.0601527,0.03675 0.0935443,0.04677 0.21657267,0.06497 0.63321,0.02339 0.86528507,0.02339 0.56906135,0 1.13812279,0 1.70718409,0 0.8029222,0 1.6058445,0 2.4087665,0 0.34226,0 0.6869816,0.01179 1.0289879,0 0.4002873,-0.0138 0.7948223,-0.07904 1.19269,-0.116931 0.2144424,-0.02042 0.4437399,-0.0023 0.6548104,-0.04677 0.285844,-0.06018 0.1538441,-0.07614 0.3975635,-0.09354 0.054429,-0.0039 0.1094687,0.006 0.1637024,0 0.1885093,-0.02095 0.3735031,-0.06672 0.5612662,-0.09354 0.3656431,-0.05223 0.7348159,-0.07959 1.0991458,-0.140317 0.095111,-0.01585 0.1859447,-0.05195 0.280633,-0.07016 0.1082596,-0.02082 0.2194797,-0.02429 0.3274047,-0.04677 0.07967,-0.0166 0.153582,-0.05678 0.233861,-0.07016 0.107925,-0.01799 0.218713,-0.01084 0.327405,-0.02339 0.09421,-0.01087 0.186531,-0.03501 0.280633,-0.04677 0.22683,-0.02835 0.450552,-0.02339 0.678197,-0.02339 0.21658,0 0.438481,-0.01273 0.65481,0 0.215371,0.01267 0.417835,0.06981 0.631424,0.09354 0.06942,0.0077 0.338214,0.03126 0.42095,0.04677 0.09477,0.01777 0.184954,0.0582 0.280633,0.07016 0.03094,0.0039 0.06329,-0.0076 0.09354,0 0.06764,0.01691 0.123002,0.06608 0.187089,0.09354 0.02266,0.0097 0.0846,0.04337 0.07016,0.02339 C 8.8593894,13.937464 3.7198318,6.7565986 -1.5200954,-0.35079125 c -0.069388,-0.0941172 0,0.23386083 0,0.35079125 0,0.37417734 0,0.74835466 0,1.122532 0,1.6837981 0,3.3675961 0,5.0513941 0,1.0679644 0,2.1359288 0,3.2038932 0,0.4443357 0,0.8886717 0,1.3330067 0,0.163703 -0.015521,0.328143 0,0.491108 0.0158,0.165895 0.065498,0.326839 0.093544,0.491108 0.173428,1.015792 -0.023032,-0.06768 0.1169304,0.912057 0.017946,0.125624 0.059321,0.247742 0.070158,0.374177 0.023301,0.271841 -0.023981,0.546731 0,0.818513 0.045912,0.520338 0.087677,0.324923 0.1637026,0.841899 0.018182,0.12364 0.00789,0.250173 0.023386,0.374177 0.01574,0.12592 0.049952,0.248898 0.0701582,0.374178 0.0872814,0.541145 0.0140687,0.159383 0.0701582,0.701582 0.011344,0.109658 0.0396745,0.217391 0.0467722,0.327406 0.008532,0.132246 -0.004014,0.265102 0,0.397563 0.0107548,0.354912 0.0556947,0.720366 0.023386,1.07576 -0.0205303,0.225834 -0.0653768,0.452856 -0.0935443,0.678196 -0.0301077,0.240862 -0.0401059,0.48455 -0.0701583,0.724969 -0.01081,0.08648 -0.039534,0.170393 -0.046772,0.257247 -0.022362,0.268339 0,0.548878 0,0.818513 0,0.217275 -0.029716,0.563728 0,0.77174 0.018614,0.130299 0.31791835,0.709648 0.3507913,0.771741 0.11120953,0.210062 0.49383719,0.340906 0.70158248833334,0.397563 C 0.08408357,22.333255 0.17316292,22.334162 0.2572467,22.357096 c 0.0880273,0.02401 0.16764632,0.07631 0.25724691,0.09354 0.11508131,0.02213 0.23418289,0.01173 0.35079127,0.02339 0.11737978,0.01174 0.23307072,0.03918 0.35079122,0.04677 0.2800508,0.01807 0.561266,0 0.841899,0 0.1559072,0 0.3120299,0.0082 0.4677217,0 0.3762561,-0.0198 0.7509492,-0.105643 1.1225319,-0.163703 0.7849669,-0.122651 1.5732514,-0.231217 2.3619944,-0.327405 0.1008917,-0.0123 0.2034775,-0.0085 0.3040192,-0.02339 0.1104074,-0.01636 0.217311,-0.05181 0.3274052,-0.07016 0.077276,-0.01288 0.155907,-0.01559 0.2338607,-0.02339 0.1013396,-0.01559 0.2030838,-0.02875 0.3040192,-0.04677 0.117389,-0.02096 0.2324658,-0.05537 0.3507912,-0.07016 0.1317252,-0.01647 0.2659777,-0.0058 0.3975634,-0.02339 0.1030907,-0.01375 0.2016355,-0.05188 0.304019,-0.07016 0.1475806,-0.02635 0.4689734,-0.0631 0.6314244,-0.07016 0.67531,-0.02936 1.3585666,0 2.0345896,0 0.319609,0 0.639219,0 0.958829,0 0.132521,0 0.26595,-0.01548 0.397563,0 0.06384,0.0075 0.122949,0.0425 0.187089,0.04677 0.810409,0 0.217705,-0.01626 1.005602,0.04677 0.03108,0.0025 0.06279,-0.0051 0.09354,0 0.110094,0.01835 0.216588,0.05686 0.327405,0.07016 0.178016,0.02136 0.358587,0 0.53788,0 0.265042,0 0.530085,0 0.795127,0 0.352053,0 0.70135,0.03082 1.052374,0.04677 0.295563,0.01344 0.59296,-0.0099 0.888671,0 0.9204,0.03068 -0.152683,0.02339 0.724968,0.02339 0.210475,0 0.422148,-0.02242 0.631425,0 0.110977,0.01189 0.216528,0.05736 0.327405,0.07016 0.185855,0.02144 0.374315,-0.0072 0.561266,0 0.634195,0.02439 0.02761,0.01265 0.631424,0.07016 0.259915,0.02475 0.533735,0 0.795127,0 0.393445,0 -0.09642,-0.006 0.374177,0.02339 0.417006,0.02606 0.985184,0.0209 1.379779,-0.07016 0.05095,-0.01176 0.09107,-0.05257 0.140317,-0.07016 0.128311,-0.04583 0.321346,-0.05165 0.420949,-0.163702 0.106767,-0.120113 0.221337,-0.236374 0.304019,-0.374178 0.03698,-0.06163 0.03197,-0.140146 0.04677,-0.210474 0.08212,-0.390058 0.04677,-0.795866 0.04677,-1.192691 0,-0.420949 0,-0.841899 0,-1.262848 0,-0.21827 0.01976,-0.437437 0,-0.65481 -0.07419,-0.81604 -0.07054,-0.07663 -0.116931,-0.865286 -0.03656,-0.621524 0.03272,-1.249119 0,-1.870886 -0.02834,-0.538528 -0.08554,-0.674021 -0.140316,-1.262849 -0.01949,-0.20957 0,-0.420949 0,-0.631424 0,-0.328081 -0.0093,-0.655097 0.02339,-0.982216 0.01592,-0.159173 0.08784,-0.599989 0.09354,-0.748354 0.01049,-0.272636 -0.01168,-0.545926 0,-0.818513 0.06186,-1.4432784 0.02451,-0.329669 0.140317,-1.1693042 0.03227,-0.233975 0.02339,-0.4663181 0.02339,-0.7015827 0,-0.3819726 0,-0.7639452 0,-1.145918 0,-0.5964505 0.03805,-1.2068125 -0.02339,-1.8007282 C 23.487811,5.6606224 23.383484,5.4935769 23.29253,5.1449225 23.19531,4.7722524 23.107886,4.3956804 23.011897,4.0223907 22.916647,3.6519536 22.76635,3.2799267 22.707878,2.8998586 c -0.01545,-0.1004573 -0.0082,-0.2035271 -0.02339,-0.3040191 -0.02382,-0.1572006 -0.06973,-0.310521 -0.09355,-0.4677217 -0.02696,-0.177939 -0.03778,-0.3581345 -0.04677,-0.5378799 -0.01826,-0.365232 0.02281,-0.73419578 0,-1.09914589 -0.02942,-0.47065986 -0.0028,0.089599 -0.07016,-0.28063299 -0.07553,-0.41540814 0.07336,0.1055504 -0.02339,-0.25724692 -0.03256,-0.12208845 -0.06758,-0.26506675 -0.140316,-0.37417735 -0.03377,-0.0506583 -0.08227,-0.0902584 -0.116931,-0.14031647 -0.186124,-0.26884569 0.0063,-0.0624976 -0.210474,-0.32740518 -0.462569,-0.5653618 -1.223754,-0.561266 -1.894273,-0.561266 -0.483313,0 -0.966625,0 -1.449937,0 -2.720581,0 -5.441162,0 -8.161743,0 -0.9432392,0 -1.8864779,0 -2.8297165,0 -0.4189653,0 -0.844972,-0.023215 -1.2628485,0 -0.1332296,0.0074 -0.2644929,0.036915 -0.3975635,0.046772 -0.1166108,0.00864 -0.2342051,-0.00897 -0.3507911,0 -0.4422696,0.034021 0.052916,0.00287 -0.3507912,0.070158 -0.084931,0.014155 -0.1725332,0.00798 -0.257247,0.023386 -0.087447,0.0159 -0.1693495,0.056974 -0.257247,0.070158 -0.069382,0.010407 -0.1404135,-0.00369 -0.2104747,0 -0.078234,0.00412 -0.1559975,0.014735 -0.233861,0.023386 -0.5932447,0.065916 0.3754914,-0.039779 -0.4911076,0.093544 -0.1004573,0.015455 -0.2032717,0.00995 -0.3040192,0.023386 -0.3840327,0.051204 -0.7932561,0.11646272 -1.169304,0.21047474 -0.1267725,0.0316931 -0.2462134,0.0904551 -0.3741774,0.1169304 -0.1914519,0.0396108 -0.3907876,0.0214855 -0.5846521,0.0467722 -0.278732,0.0363564 -0.2094748,0.0558112 -0.46772161,0.0701583 -0.23008029,0.0127823 -0.20625339,-0.0212543 -0.44433558,0.023386 -0.0484578,0.009086 -0.0919717,0.0371032 -0.1403165,0.0467722 -0.12748258,0.0254966 -0.26865262,-0.0184158 -0.39756342,0 -0.01637027,0.002339 -0.14733232,0.0444336 -0.16370258,0.0467722 -0.101636,0.0145195 -0.22558064,0 -0.32740517,0 -0.18708867,0 -0.37417734,0 -0.56126594,0 -0.067632,0 -0.1714488,-0.0187235 -0.2338609,0 -0.063795,0.0191384 -0.1247258,0.0467722 -0.2338608,0.023386 z"
       id="path36" />
    <path
       style="fill:#cccccc;stroke:#cccccc;stroke-width:0.264583"
       d="m 0.9588294,4.770761 c 0.2011083,-0.064572 0.4071791,-0.00531 0.6080382,0.023386 0.337833,0.048262 0.1684711,0.00725 0.4911077,0.023387 0.5763151,0.028816 -0.045191,0.023386 0.3975635,0.023386 0.3868344,0 -0.1130946,-0.00897 0.4443355,0.046772 0.25131,0.02513 0.5184574,0 0.7717409,0 0.119616,0 0.3084198,0.028132 0.4209494,0 C 4.280582,4.8406883 4.611552,4.6447299 4.7239888,4.4901294 4.7486797,4.4561791 4.7519873,4.4107465 4.770761,4.3731989 4.8500892,4.2145428 4.8479363,4.1712935 4.8876915,3.9990215 4.9306247,3.8129773 4.9926835,3.6261524 5.028008,3.4377555 5.0858946,3.1290268 5.07478,2.8145126 5.07478,2.5023122 V 1.6136411 c 0,-0.065186 -0.023741,-0.3965022 0,-0.4677217 0.054089,-0.16226594 0.2776648,-0.2052039 0.4209497,-0.23386082 0.046496,-0.009299 0.093544,-0.0155908 0.1403164,-0.023386 0.077954,-0.023386 0.154413,-0.0525031 0.2338608,-0.0701582 0.3432005,-0.0762668 0.027685,0.025931 0.3975634,-0.023386 0.04887,-0.006516 0.091588,-0.0392754 0.1403165,-0.0467722 0.128275,-0.0197345 0.2882701,-0.0113244 0.4209494,-0.023386 0.7173592,-0.0652145 1.4545339,-0.023386 2.1749059,-0.023386 h 3.9990199 1.637026 0.678197 c 0.07795,0 0.157164,-0.0139449 0.23386,0 0.05584,0.0101521 0.107924,0.0363136 0.163703,0.0467722 0.06938,0.013009 0.140959,0.0111186 0.210475,0.023386 0.162374,0.0286543 0.316667,0.0798948 0.467722,0.14031651 0.0072,0.002895 0.01787,-0.005512 0.02339,0 0.01232,0.0123193 0,0.13438791 0,0.16370261 0,0.1663643 -5.82e-4,0.2912653 -0.07016,0.4443355 -0.02164,0.047606 -0.05229,0.091172 -0.07016,0.1403165 -0.01358,0.037356 -0.0094,0.079713 -0.02339,0.1169304 -0.0099,0.026317 -0.03788,0.043494 -0.04677,0.070158 -0.08831,0.2649253 -0.07016,0.587365 -0.07016,0.865285 V 3.578072 c 0,0.1312426 -0.02626,0.6929458 0,0.7717409 0.01438,0.043122 0.03524,0.087831 0.07016,0.1169302 0.368944,0.307453 1.083796,0.3507915 1.543482,0.3507915 h 1.590253 c 0.157269,0 0.770069,-0.033744 0.865285,0.023386 0.01891,0.011343 0.02763,0.035833 0.04677,0.046772 0.05652,0.032298 0.264524,0.1212623 0.304019,0.1870885 0.02312,0.038528 0.0052,0.1415653 0.02339,0.1870887 0.01044,0.026096 0.03905,0.043133 0.04677,0.070158 0.0052,0.01819 -0.0039,0.1364189 0,0.1637027 0.02879,0.2015318 0.02339,0.4028379 0.02339,0.6080381 0,0.3671377 0.0098,0.7342175 -0.02339,1.0991459 -0.01041,0.1144936 0.01883,0.23779 0,0.3507912 -0.02238,0.1342879 -0.07022,0.2634366 -0.09354,0.3975634 -0.02758,0.1586018 0,0.3521583 0,0.5144939 v 1.0056016 1.1693044 c 0,0.192109 0.0146,0.39484 0,0.584652 -0.01655,0.215079 -0.0975,0.417692 -0.116931,0.631424 -0.01735,0.190851 0,0.392787 0,0.584652 v 1.286235 1.099146 c 0,0.153314 -0.01524,0.315288 0,0.467722 0.0093,0.0934 0.01174,0.187489 0.02339,0.280632 0.0031,0.02446 0.01559,0.04677 0.02339,0.07016 0.0078,0.04677 0.01815,0.09319 0.02339,0.140316 0.01854,0.166901 -0.03307,0.243206 -0.03307,0.411141 0,0.04851 -0.09396,0.14455 -0.115755,0.188143 -0.05573,0.111003 -0.111112,0.06714 -0.636534,0.121064 -0.216148,0.0067 -0.411591,0.07547 -0.968596,0.09816 l -1.341777,-0.184165 -0.540803,0.02631 c -0.171917,0.02237 -0.327176,0.06987 -0.400486,0.181242 -0.09332,0.141766 -0.08681,0.588005 -0.09524,0.456703 -0.02614,-0.127876 0.01221,0.18247 0.028,0.300418 0.01484,0.09254 -0.04359,0.221674 -0.03508,0.39172 0.02168,0.135462 0.0096,0.301318 0,0.415103 -0.06324,0.258316 -0.01063,0.58511 -0.06724,0.844815 -0.03854,0.176838 0.04028,0.615596 0.04093,0.716199 0.01155,0.03928 0.172565,0.431129 0.01169,0.511567 -0.49938,0.14984 -0.891608,0.104236 -1.419513,0.07877 -0.728081,0.05665 -1.344309,0.02938 -2.194363,0.01086 -0.649342,-0.0657 -0.814296,-0.109509 -1.638316,-0.02505 -0.630785,-0.06718 -2.1346881,0.0402 -2.2179921,0.01938 -1.3369842,0.03772 -1.7460035,0.0261 -2.3288275,-0.11952 -0.2270036,-0.05703 -0.5451862,0.14194 -0.8988036,0.02789 -0.054087,-0.04733 -0.7812354,-0.01177 -0.8168925,-0.07417 -0.031182,-0.05457 -0.00719,-0.126363 -0.023386,-0.187089 -0.015296,-0.05736 0.1664332,-0.304292 0.1613524,-0.610186 -0.00753,-0.453119 -0.045773,-0.688492 -0.068983,-0.886523 -0.037104,-0.316573 -0.00164,-0.574105 -0.073239,-0.884415 -0.058358,-0.252933 0.2655214,-1.044743 -0.2832268,-1.130357 -0.4744178,-0.176564 -0.5562444,0.130271 -1.0766917,0.04325 -0.041408,-0.0069 -0.3486176,0.08548 -0.3897818,0.07725 -0.03822,-0.0076 -0.078192,0.0043 -0.1169305,0 -0.031944,-0.0036 -0.061726,-0.01884 -0.093544,-0.02339 -0.2053828,-0.02934 -0.4684327,0 -0.6781963,0 H 1.4265698 c -0.098666,0 -0.381487,0.02874 -0.46772166,0 -0.0496094,-0.01654 -0.0913531,-0.0518 -0.14031648,-0.07016 -0.0300947,-0.01128 -0.0659836,-0.0069 -0.0935443,-0.02339 -0.0682341,-0.04094 -0.023386,-0.28279 -0.023386,-0.350791 0,-0.07016 0.0192741,-0.143016 0,-0.210475 -0.0210918,-0.07382 -0.0724525,-0.136653 -0.0935443,-0.210475 -0.0258688,-0.09054 0,-0.231964 0,-0.327405 0,-0.308945 0.0225414,-0.629261 -0.023386,-0.935443 -0.008418,-0.05613 -0.0341949,-0.108365 -0.0467721,-0.163705 -0.0264275,-0.116281 -0.0437308,-0.23451 -0.0701583,-0.350791 -0.0471499,-0.20746 -0.12094569,-0.418346 -0.14031647,-0.631425 -0.008469,-0.09316 0.004063,-0.187177 0,-0.280632 -0.0182954,-0.420793 -0.0250428,-0.105142 -0.0935444,-0.584653 -0.0154734,-0.108313 -0.01035,-0.218771 -0.0233861,-0.327405 -0.0350235,-0.291863 -0.12624221,-0.569725 -0.1403165,-0.865285 -0.0158759,-0.333394 0,-0.671795 0,-1.005602 0,-0.3568243 -0.01620576,-0.7192331 0,-1.0757597 C 0.08807992,8.7730681 0.27439358,8.426801 0.35079125,8.0448128 0.39397857,7.828876 0.41525076,7.6081384 0.44433558,7.3900024 c 0.0170593,-0.1279435 0.0119663,-0.2811799 0.0701582,-0.3975635 0.0160605,-0.032121 0.11464454,-0.068787 0.11693043,-0.070158 0.0187,-0.011221 0.12777698,-0.2196282 0.14031651,-0.257247 0.0189651,-0.056895 0,-0.1755843 0,-0.2338607 V 5.8932933 c 0,-0.059618 -0.026352,-0.1811573 0,-0.233861 0.0593169,-0.1186338 0.0705094,-0.1658098 0.0935443,-0.3040189 0.0136972,-0.082183 0.0736668,-0.1543508 0.0935443,-0.233861 0.0206155,-0.082462 0,-0.2731206 8e-8,-0.3507914 z"
       id="path37"
       sodipodi:nodetypes="cccsssssssssscscsssssccssssccsssccssccssssscscssscscscsscsccccsccsccscccsscscccscsssssscccccsscccssssssssssssscssscssssssc" />
  </g>
</svg>
